# xmcd CD database file
#
# Track frame offsets:
#	150
#	8973
#	26346
#	39489
#	54681
#	73333
#	83210
#	102391
#	115385
#	127440
#	148698
#	160379
#	174241
#	190242
#	202529
#	211912
#	227780
#	239124
#	250082
#	263889
#
# Disc length: 3692 seconds
#
# Revision: 0
# Processed by: cddbd v1.4PL0 Copyright (c) Steve Scherf et al.
# Submitted via: CDex 1.50
#
DISCID=260e6a14
DTITLE=Various Artist - Prvni velky cesky country zpevnik Vol.1
DYEAR=1900
DGENRE=Country
TTITLE0=Aljaska
TTITLE1=Ja bych tu zil
TTITLE2=Agnes
TTITLE3=Alabamy
TTITLE4=Az me andele
TTITLE5=Buraky
TTITLE6=Bajecna zenska
TTITLE7=Blaznova ukolebavka
TTITLE8=Boty proti lasce
TTITLE9=Balicek karet
TTITLE10=Blativa cesta
TTITLE11=Boty z kuze toulavejch psu
TTITLE12=Blizzard
TTITLE13=Bodlaky ve vlasech
TTITLE14=Bonanza
TTITLE15=Biblickou krajinou
TTITLE16=Cesty toulavy
TTITLE17=Cesta na Nashville
TTITLE18=Cizinec
TTITLE19=Citadela citu
EXTD=
EXTT0=
EXTT1=
EXTT2=
EXTT3=
EXTT4=
EXTT5=
EXTT6=
EXTT7=
EXTT8=
EXTT9=
EXTT10=
EXTT11=
EXTT12=
EXTT13=
EXTT14=
EXTT15=
EXTT16=
EXTT17=
EXTT18=
EXTT19=
PLAYORDER=
